<svg xmlns="http://www.w3.org/2000/svg" xmlns:xlink="http://www.w3.org/1999/xlink" viewBox="0 0 40.24 52.32"><defs><style>.cls-1{fill:#c00;}.cls-2{fill:url(#linear-gradient);}</style><linearGradient id="linear-gradient" x1="7.75" y1="22.99" x2="32.63" y2="54.38" gradientUnits="userSpaceOnUse"><stop offset="0" stop-color="#c3d82e"/><stop offset="0.41" stop-color="#32b9ae"/><stop offset="0.63" stop-color="#00adee"/></linearGradient></defs><g id="Layer_2" data-name="Layer 2"><g id="Layer_1-2" data-name="Layer 1"><path class="cls-1" d="M32.19,4h-2L28.55,5.67,27.16,4H25.52L24.33,5.22,23,4H19.36a7.11,7.11,0,0,0-6.29-4A7.14,7.14,0,0,0,6,7a7.13,7.13,0,0,0,7,7.05,7.09,7.09,0,0,0,6.29-4H32.19l2-2V6Zm-21.13,5a1.89,1.89,0,0,1-2-2,1.89,1.89,0,0,1,2-2,1.89,1.89,0,0,1,2,2A1.89,1.89,0,0,1,11.06,9.05Z"/><path class="cls-2" d="M38.23,30.19h-.94l-1.45-6a8.17,8.17,0,0,0-7.87-6H12.26a8.21,8.21,0,0,0-4.95,1.7A8.1,8.1,0,0,0,4.4,24.15L3,30.19H2a1.89,1.89,0,0,0-2,2v2a1.89,1.89,0,0,0,2,2V50.31a1.9,1.9,0,0,0,2,2H8a1.9,1.9,0,0,0,2-2v-2H30.18v2a1.89,1.89,0,0,0,2,2h4a1.9,1.9,0,0,0,2-2V36.22a1.89,1.89,0,0,0,2-2v-2A1.89,1.89,0,0,0,38.23,30.19Zm-29.8-5a3.87,3.87,0,0,1,3.83-3H28a3.87,3.87,0,0,1,3.84,3l1.7,7.05H6.73Zm.62,19.12a3,3,0,1,1,0-6,3,3,0,1,1,0,6Zm22.13,0a3,3,0,1,1,3-3A3.08,3.08,0,0,1,31.18,44.27Z"/></g></g></svg>