<svg xmlns="http://www.w3.org/2000/svg" xmlns:xlink="http://www.w3.org/1999/xlink" viewBox="0 0 35.77 46.51"><defs><style>.cls-1{fill:#1c1d1d;}.cls-2{fill:url(#linear-gradient);}</style><linearGradient id="linear-gradient" x1="6.89" y1="20.44" x2="29.01" y2="48.35" gradientUnits="userSpaceOnUse"><stop offset="0" stop-color="#c3d82e"/><stop offset="0.41" stop-color="#32b9ae"/><stop offset="0.63" stop-color="#00adee"/></linearGradient></defs><g id="Layer_2" data-name="Layer 2"><g id="Layer_1-2" data-name="Layer 1"><path class="cls-1" d="M28.62,3.58H26.83L25.38,5,24.15,3.58H22.69L21.63,4.64,20.4,3.58H17.21A6.32,6.32,0,0,0,11.62,0,6.34,6.34,0,0,0,5.36,6.26a6.34,6.34,0,0,0,6.26,6.27A6.31,6.31,0,0,0,17.21,9H28.62l1.79-1.79V5.37ZM9.83,8.05A1.68,1.68,0,0,1,8.05,6.26,1.68,1.68,0,0,1,9.83,4.48a1.68,1.68,0,0,1,1.79,1.78A1.68,1.68,0,0,1,9.83,8.05Z"/><path class="cls-2" d="M34,26.84h-.84l-1.29-5.37a7.26,7.26,0,0,0-7-5.37h-14a7.29,7.29,0,0,0-7,5.37L2.62,26.84H1.78A1.68,1.68,0,0,0,0,28.63v1.78A1.68,1.68,0,0,0,1.78,32.2V44.73a1.69,1.69,0,0,0,1.79,1.78H7.15a1.69,1.69,0,0,0,1.79-1.78V42.94H26.83v1.79a1.68,1.68,0,0,0,1.79,1.78H32.2A1.69,1.69,0,0,0,34,44.73V32.2a1.68,1.68,0,0,0,1.78-1.79V28.63A1.68,1.68,0,0,0,34,26.84ZM7.49,22.36a3.45,3.45,0,0,1,3.41-2.68h14a3.45,3.45,0,0,1,3.41,2.68l1.51,6.27H6Zm.56,17a2.69,2.69,0,1,1,0-5.37,2.69,2.69,0,0,1,0,5.37Zm19.67,0a2.69,2.69,0,1,1,2.69-2.68A2.75,2.75,0,0,1,27.72,39.36Z"/></g></g></svg>