<svg xmlns="http://www.w3.org/2000/svg" xmlns:xlink="http://www.w3.org/1999/xlink" viewBox="0 0 59.53 75.03"><defs><style>.cls-1{fill:none;stroke:#2b2b2b;stroke-linecap:round;stroke-linejoin:round;stroke-width:2.89px;}.cls-2{fill:url(#linear-gradient);}.cls-3{fill:url(#linear-gradient-2);}.cls-4{fill:url(#linear-gradient-3);}.cls-5{fill:url(#linear-gradient-4);}.cls-6{fill:url(#linear-gradient-5);}.cls-7{fill:url(#linear-gradient-6);}</style><linearGradient id="linear-gradient" x1="28.16" y1="29.09" x2="35.41" y2="57.37" gradientUnits="userSpaceOnUse"><stop offset="0" stop-color="#c3d82e"/><stop offset="0.41" stop-color="#32b9ae"/><stop offset="0.63" stop-color="#00adee"/></linearGradient><linearGradient id="linear-gradient-2" x1="25.17" y1="29.86" x2="32.42" y2="58.13" xlink:href="#linear-gradient"/><linearGradient id="linear-gradient-3" x1="23.86" y1="33.71" x2="28.78" y2="33.71" xlink:href="#linear-gradient"/><linearGradient id="linear-gradient-4" x1="31.88" y1="33.71" x2="36.81" y2="33.71" xlink:href="#linear-gradient"/><linearGradient id="linear-gradient-5" x1="29.26" y1="33.74" x2="31.35" y2="33.74" xlink:href="#linear-gradient"/><linearGradient id="linear-gradient-6" x1="22.22" y1="0.88" x2="33.82" y2="18.61" xlink:href="#linear-gradient"/></defs><title>zxCoustomers</title><g id="Layer_2" data-name="Layer 2"><g id="Layer_1-2" data-name="Layer 1"><path class="cls-1" d="M49.73,73.59h8.21s.34-10,0-12.82-2.14-20.9-3.37-22.25C43.77,35,40,31.77,40,31.77a69.5,69.5,0,0,1-1.68,17.09A53.8,53.8,0,0,1,30.1,67.07a45.49,45.49,0,0,1-8.25-16.75,75.22,75.22,0,0,1-1.91-18.55C19.27,34,7,38.18,4.88,39c0,3.59-2.14,15.51-3,21s0,13.49,0,13.49h8.44Z"/><path class="cls-2" d="M32.3,38.22l-.54,1.11a.48.48,0,0,1-.45.29H29.49a.5.5,0,0,1-.45-.28l-.54-1.12a.54.54,0,0,1,0-.31l.24-1.27a.49.49,0,0,1,.49-.41h2.42a.49.49,0,0,1,.49.41l.24,1.27A.47.47,0,0,1,32.3,38.22Z"/><polygon class="cls-3" points="29.06 40.46 31.59 40.46 32.94 54.58 30.47 56.97 27.82 54.63 29.06 40.46"/><path class="cls-4" d="M28.78,32.57l-2.86-1.28a1.23,1.23,0,0,0-1.52.45l-.11.18a2.64,2.64,0,0,0-.43,1.44V34a2.64,2.64,0,0,0,.43,1.44l.15.24a1.23,1.23,0,0,0,1.44.48l2.9-1.07Z"/><path class="cls-5" d="M31.88,34.84l2.87,1.29a1.23,1.23,0,0,0,1.52-.45l.11-.18a2.64,2.64,0,0,0,.43-1.44v-.64A2.67,2.67,0,0,0,36.38,32l-.15-.23a1.21,1.21,0,0,0-1.44-.48l-2.91,1.07Z"/><rect class="cls-6" x="29.26" y="32.56" width="2.09" height="2.36" rx="1.05"/><path class="cls-7" d="M40,13.76V7.43C40,7.05,39.8,0,30.57,0S20.23,5.55,20.23,7.14v6.62l-.84,0v4.8c3.72,7.89,7.73,9.6,8.55,9.6a24,24,0,0,0,4.65,0C36,27.57,40.88,18,40.88,17.69V13.76Zm-.75,3.51c-3.21,7.93-7.09,9.48-7.42,9.48h-4c-4.06-1.43-7.26-8.89-7.26-9.39V15l1.16,0V11.06a28.75,28.75,0,0,0,4.34,0C31.29,10.89,33,7.21,35,7.21A3,3,0,0,1,38,10.05V15h1.29S39.3,16.06,39.25,17.27Z"/></g></g></svg>