<svg xmlns="http://www.w3.org/2000/svg" xmlns:xlink="http://www.w3.org/1999/xlink" viewBox="0 0 69.2 66.77"><defs><style>.cls-1{fill:none;stroke:#2b2b2b;stroke-linecap:round;stroke-linejoin:round;stroke-width:3.03px;}.cls-2{fill:url(#linear-gradient);}.cls-3{fill:url(#linear-gradient-2);}.cls-4{fill:url(#linear-gradient-3);}</style><linearGradient id="linear-gradient" x1="-168.54" y1="-567.89" x2="-155.69" y2="-580" gradientTransform="matrix(-0.62, -0.79, -0.79, 0.62, -542.98, 268.14)" gradientUnits="userSpaceOnUse"><stop offset="0" stop-color="#c3d82e"/><stop offset="0.41" stop-color="#32b9ae"/><stop offset="0.63" stop-color="#00adee"/></linearGradient><linearGradient id="linear-gradient-2" x1="-25.43" y1="-533.32" x2="-12.59" y2="-545.43" gradientTransform="matrix(0.97, 0.25, 0.25, -0.97, 205.51, -506.83)" xlink:href="#linear-gradient"/><linearGradient id="linear-gradient-3" x1="32.63" y1="23.11" x2="40.48" y2="49.65" gradientTransform="matrix(1, 0, 0, 1, 0, 0)" xlink:href="#linear-gradient"/></defs><g id="Layer_2" data-name="Layer 2"><g id="Layer_1-2" data-name="Layer 1"><path class="cls-1" d="M6,30.6A31,31,0,0,1,53.54,8.3"/><path class="cls-1" d="M63.8,19.28A31,31,0,1,1,7,43.09"/><polygon class="cls-2" points="16.42 45.46 0 48.91 5.88 36.2 16.42 45.46"/><polygon class="cls-3" points="45.27 12.75 56.18 0 59.27 13.66 45.27 12.75"/><path class="cls-4" d="M43.07,18l4.52,2.7c1.4.84,2.8,1.7,4.22,2.53a.48.48,0,0,1,.27.49q0,10.53,0,21.08v.44h2.08v2.3H20.57V45.29H23V27a2.43,2.43,0,0,1,2.64-2.66h5a2.28,2.28,0,0,1,1.48.53,1.48,1.48,0,0,1,.63,1.25c0,5.82,0,11.64,0,17.46V44h.59V30.37h5.51A2.43,2.43,0,0,1,41.42,33V45.26h1.65Zm1.21,10.82v2.66h2.66V28.85Zm6.58,2.67V28.85H48.19v2.67Zm-3.93-4.77V24.1H44.28v2.65Zm3.94-2.65H48.2v2.64h2.67ZM44.28,36.36h2.65V33.7H44.28Zm2.66,4.77V38.47H44.29v2.66Zm3.92-2.67H48.2v2.66h2.66Zm-2.67-2.08c.86,0,1.68,0,2.5,0a.23.23,0,0,0,.17-.16c0-.83,0-1.66,0-2.51H48.19Zm-21.25-5H24.57V33.7h2.37Zm0,11V40H24.58v2.37Zm4-8.67V31.35H28.58v2.36ZM28.59,40v2.37h2.34V40Zm-4-4.29v2.35h2.35V35.71Zm2.35-6.3V27.05H24.58v2.36Zm4,0V27.05H28.58V29.4Zm0,8.66V35.71H28.58v2.35Z"/></g></g></svg>