<svg xmlns="http://www.w3.org/2000/svg" xmlns:xlink="http://www.w3.org/1999/xlink" viewBox="0 0 81.69 69.24"><defs><style>.cls-1,.cls-2,.cls-3,.cls-4{fill:none;stroke-linecap:round;stroke-linejoin:round;stroke-width:1.65px;}.cls-1{stroke:#2b2b2b;}.cls-2{stroke:url(#linear-gradient);}.cls-3{stroke-dasharray:4.03 4.03;stroke:url(#linear-gradient-2);}.cls-4{stroke:url(#linear-gradient-3);}.cls-5{fill:url(#linear-gradient-4);}.cls-6{fill:#2b2b2b;}.cls-7{fill:#c00;}.cls-8{fill:#fff;}</style><linearGradient id="linear-gradient" x1="54.45" y1="-648.4" x2="59.02" y2="-652.71" gradientTransform="matrix(1, 0, 0, -1, 0, -627.14)" gradientUnits="userSpaceOnUse"><stop offset="0" stop-color="#c3d82e"/><stop offset="0.41" stop-color="#32b9ae"/><stop offset="0.63" stop-color="#00adee"/></linearGradient><linearGradient id="linear-gradient-2" x1="46.87" y1="-656.45" x2="51.44" y2="-660.76" xlink:href="#linear-gradient"/><linearGradient id="linear-gradient-3" x1="40.4" y1="-663.32" x2="44.97" y2="-667.62" xlink:href="#linear-gradient"/><linearGradient id="linear-gradient-4" x1="45.69" y1="-632.36" x2="52.87" y2="-639.13" xlink:href="#linear-gradient"/></defs><g id="Layer_2" data-name="Layer 2"><g id="Layer_1-2" data-name="Layer 1"><path d="M13.17,46.63c6-5,11-3.12,15.94.61a6.71,6.71,0,0,0,3.58.92c3,.1,6-.31,9,0a17.14,17.14,0,0,1,6.77,2.27c1.44.88,2.57,1.52,4.15,1,2.53-.92,5.09-1.8,7.57-2.87,3.23-1.39,6.41-2.92,9.59-4.42s6.58-.9,9.76.24c2.69,1,2.94,2.84.66,4.59a33.43,33.43,0,0,1-4.64,2.8Q61.25,59.34,47,66.85a12.78,12.78,0,0,1-10.23,1c-2.5-.79-5.12-1.27-7.52-2.29-4.82-2-9.57-1.16-14.33,0-.63.15-1.61.87-1.61,1.31.05,2.27-1.27,2.44-3,2.4-2.62-.06-5.25,0-7.88,0C.7,69.27,0,68.56,0,66.8q.09-11,0-22c0-1.9.75-2.59,2.58-2.52,2.08.07,4.17.09,6.25,0C11.46,42.12,13.89,42.08,13.17,46.63Zm66,.27c-5.18-1.54-6.34-1.43-10.45.31C63.2,49.55,57.6,51.8,52.05,54.16a2.45,2.45,0,0,0-1.27,1.45,6.1,6.1,0,0,1-6.32,5,93,93,0,0,1-12.08-1.24c-.58-.08-1-1.14-1.53-1.75.7-.22,1.42-.71,2.08-.63,2.5.33,5,1,7.48,1.22a13.49,13.49,0,0,0,5.55-.7c3-1.18,3.31-4,.41-5.35a16.34,16.34,0,0,0-7.29-1.36c-5.34.19-10.37.22-14.9-3.46-2.58-2.11-8.75-.72-10.66,1.79a1.7,1.7,0,0,0-.31,1c0,4.23,0,8.45,0,12.75a7.25,7.25,0,0,0,1.65,0c6.35-1.93,12.5-1,18.56,1.29,1.27.48,2.61.73,3.89,1.19a10.44,10.44,0,0,0,8.88-.88q10-5.37,20.13-10.69ZM10.56,66.52V45H2.82V66.52Z"/><path class="cls-1" d="M38.57,38.29a17,17,0,1,1,12-29"/><path class="cls-2" d="M55.54,21.29a17.46,17.46,0,0,1-.1,1.91"/><path class="cls-3" d="M54.54,27.12A17.08,17.08,0,0,1,45,37"/><path class="cls-4" d="M43.13,37.67a17.7,17.7,0,0,1-1.86.41"/><polygon class="cls-5" points="44.1 11.07 49.67 1.63 51.77 10.15 44.1 11.07"/><path class="cls-6" d="M39.1,26.9a3.79,3.79,0,0,1-3.5-1.74A.94.94,0,0,1,36,23.9a.91.91,0,0,1,.43-.1h0a1,1,0,0,1,.87.6,1.8,1.8,0,0,0,1.79,1c1.24,0,1.94-.68,1.94-1.59,0-2.62-5.75-.92-5.75-4.9,0-1.9,1.51-3.08,3.73-3.08a3.7,3.7,0,0,1,3.26,1.52A.93.93,0,0,1,42,18.65a1,1,0,0,1-.49.13h0a.93.93,0,0,1-.83-.5A1.82,1.82,0,0,0,39,17.35c-1,0-1.82.47-1.82,1.51,0,2.45,5.74.92,5.74,4.9C42.84,25.34,41.51,26.9,39.1,26.9Z"/><line class="cls-1" x1="39.34" y1="13.3" x2="39.34" y2="29.43"/><path class="cls-7" d="M70.12,1.23V14a1.23,1.23,0,0,1-1.23,1.24H60.31l-6,3.39,2.34-3.39h-.6A1.23,1.23,0,0,1,54.85,14V1.23A1.23,1.23,0,0,1,56.07,0H68.89A1.23,1.23,0,0,1,70.12,1.23Z"/><path class="cls-8" d="M63.47,2.87,62.92,9.5a.44.44,0,0,1-.88,0l-.55-6.63a1,1,0,1,1,2,0Z"/><circle class="cls-8" cx="62.48" cy="11.93" r="1.05"/></g></g></svg>