<svg xmlns="http://www.w3.org/2000/svg" xmlns:xlink="http://www.w3.org/1999/xlink" viewBox="0 0 65.56 68.94"><defs><style>.cls-1,.cls-2,.cls-3,.cls-4{fill:none;stroke-linecap:round;stroke-linejoin:round;}.cls-1{stroke:#2b2b2b;stroke-width:3.03px;}.cls-2,.cls-3,.cls-4{stroke-width:3.03px;}.cls-2{stroke:url(#linear-gradient);}.cls-3{stroke-dasharray:7.42 7.42;stroke:url(#linear-gradient-2);}.cls-4{stroke:url(#linear-gradient-3);}.cls-5{fill:url(#linear-gradient-4);}.cls-6{fill:#2b2b2b;}</style><linearGradient id="linear-gradient" x1="62.02" y1="36.09" x2="70.42" y2="44.01" gradientUnits="userSpaceOnUse"><stop offset="0" stop-color="#c3d82e"/><stop offset="0.41" stop-color="#32b9ae"/><stop offset="0.63" stop-color="#00adee"/></linearGradient><linearGradient id="linear-gradient-2" x1="48.05" y1="50.92" x2="56.45" y2="58.84" xlink:href="#linear-gradient"/><linearGradient id="linear-gradient-3" x1="36.15" y1="63.55" x2="44.55" y2="71.46" xlink:href="#linear-gradient"/><linearGradient id="linear-gradient-4" x1="45.88" y1="6.61" x2="59.09" y2="19.06" xlink:href="#linear-gradient"/></defs><title>zxPending Deposits</title><g id="Layer_2" data-name="Layer 2"><g id="Layer_1-2" data-name="Layer 1"><path class="cls-1" d="M32.78,67.42a31.26,31.26,0,1,1,22.1-53.37"/><path class="cls-2" d="M64,36.16a31.18,31.18,0,0,1-.19,3.5"/><path class="cls-3" d="M62.16,46.87A31.37,31.37,0,0,1,44.67,65.08"/><path class="cls-4" d="M41.16,66.29a31.94,31.94,0,0,1-3.42.74"/><polygon class="cls-5" points="42.96 17.36 53.19 0 57.07 15.66 42.96 17.36"/><path class="cls-6" d="M33.75,46.48c-2.93,0-5.36-1.18-6.44-3.2a1.73,1.73,0,0,1,1.55-2.51h0a1.79,1.79,0,0,1,1.61,1.11,3.31,3.31,0,0,0,3.28,1.85c2.29,0,3.58-1.24,3.58-2.93,0-4.81-10.58-1.69-10.58-9,0-3.5,2.78-5.67,6.86-5.67,2.69,0,4.83,1,6,2.79a1.73,1.73,0,0,1-1.49,2.62h0a1.7,1.7,0,0,1-1.53-.93,3.35,3.35,0,0,0-3.09-1.7c-1.89-.06-3.35.86-3.35,2.78,0,4.5,10.55,1.69,10.55,9C40.63,43.61,38.19,46.48,33.75,46.48Z"/><line class="cls-1" x1="34.2" y1="21.45" x2="34.2" y2="51.13"/></g></g></svg>