<svg xmlns="http://www.w3.org/2000/svg" xmlns:xlink="http://www.w3.org/1999/xlink" viewBox="0 0 69.2 66.77"><defs><style>.cls-1{fill:none;stroke:#2b2b2b;stroke-linecap:round;stroke-linejoin:round;stroke-width:3.03px;}.cls-2{fill:url(#linear-gradient);}.cls-3{fill:url(#linear-gradient-2);}.cls-4{fill:url(#linear-gradient-3);}</style><linearGradient id="linear-gradient" x1="-0.14" y1="-485.94" x2="12.7" y2="-498.04" gradientTransform="matrix(-0.62, -0.79, -0.79, 0.62, -374.59, 350.1)" gradientUnits="userSpaceOnUse"><stop offset="0" stop-color="#c3d82e"/><stop offset="0.41" stop-color="#32b9ae"/><stop offset="0.63" stop-color="#00adee"/></linearGradient><linearGradient id="linear-gradient-2" x1="-22.2" y1="-559.07" x2="-9.36" y2="-571.18" gradientTransform="matrix(0.97, 0.25, 0.25, -0.97, 208.74, -532.58)" xlink:href="#linear-gradient"/><linearGradient id="linear-gradient-3" x1="30.57" y1="26.45" x2="43.25" y2="52.34" gradientTransform="matrix(1, 0, 0, 1, 0, 0)" xlink:href="#linear-gradient"/></defs><g id="Layer_2" data-name="Layer 2"><g id="Layer_1-2" data-name="Layer 1"><path class="cls-1" d="M6,30.6A31,31,0,0,1,53.54,8.3"/><path class="cls-1" d="M63.8,19.28A31,31,0,1,1,7,43.09"/><polygon class="cls-2" points="16.42 45.46 0 48.91 5.88 36.2 16.42 45.46"/><polygon class="cls-3" points="45.27 12.75 56.18 0 59.27 13.66 45.27 12.75"/><path class="cls-4" d="M51.28,33.38h-.73l-1.11-4.64a6.28,6.28,0,0,0-6-4.64H31.32a6.29,6.29,0,0,0-6,4.64l-1.11,4.64h-.73a1.46,1.46,0,0,0-1.55,1.54v1.55A1.46,1.46,0,0,0,23.44,38V48.84A1.47,1.47,0,0,0,25,50.39h3.1a1.46,1.46,0,0,0,1.54-1.55V47.29H45.09v1.55a1.47,1.47,0,0,0,1.55,1.55h3.09a1.47,1.47,0,0,0,1.55-1.55V38a1.46,1.46,0,0,0,1.54-1.54V34.92A1.46,1.46,0,0,0,51.28,33.38ZM28.37,29.51a3,3,0,0,1,2.95-2.32H43.39a3,3,0,0,1,3,2.32l1.3,5.41H27.07Zm.48,14.69a2.32,2.32,0,1,1,2.32-2.32A2.37,2.37,0,0,1,28.85,44.2Zm17,0a2.32,2.32,0,1,1,2.32-2.32A2.37,2.37,0,0,1,45.86,44.2Z"/></g></g></svg>