<svg xmlns="http://www.w3.org/2000/svg" xmlns:xlink="http://www.w3.org/1999/xlink" viewBox="0 0 64.95 70.5"><defs><style>.cls-1{fill:none;stroke:#2b2b2b;stroke-linecap:round;stroke-linejoin:round;stroke-width:3.03px;}.cls-2{fill:url(#linear-gradient);}.cls-3{fill:url(#linear-gradient-2);}</style><linearGradient id="linear-gradient" x1="42.72" y1="-441.16" x2="55.93" y2="-453.61" gradientTransform="matrix(1, 0, 0, -1, 0, -434.55)" gradientUnits="userSpaceOnUse"><stop offset="0" stop-color="#c3d82e"/><stop offset="0.41" stop-color="#32b9ae"/><stop offset="0.63" stop-color="#00adee"/></linearGradient><linearGradient id="linear-gradient-2" x1="27.36" y1="28.29" x2="36.08" y2="51.81" gradientTransform="matrix(1, 0, 0, 1, 0, 0)" xlink:href="#linear-gradient"/></defs><g id="Layer_2" data-name="Layer 2"><g id="Layer_1-2" data-name="Layer 1"><path class="cls-1" d="M63.43,38A30.92,30.92,0,1,1,47.23,10.8"/><polygon class="cls-2" points="39.8 17.36 50.03 0 53.91 15.66 39.8 17.36"/><path class="cls-3" d="M46.83,35.46h-.75l-1.15-4.79a6.45,6.45,0,0,0-6.23-4.79H26.25a6.5,6.5,0,0,0-3.93,1.34A6.43,6.43,0,0,0,20,30.67l-1.15,4.79h-.75a1.5,1.5,0,0,0-1.6,1.59v1.59a1.5,1.5,0,0,0,1.6,1.59V51.4A1.5,1.5,0,0,0,19.71,53H22.9a1.51,1.51,0,0,0,1.6-1.6V49.81h16V51.4A1.51,1.51,0,0,0,42,53h3.2a1.51,1.51,0,0,0,1.59-1.6V40.23a1.5,1.5,0,0,0,1.59-1.59V37.05A1.5,1.5,0,0,0,46.83,35.46Zm-23.63-4a3.08,3.08,0,0,1,3.05-2.39H38.7a3.09,3.09,0,0,1,3,2.39l1.34,5.58H21.86Zm.5,15.14a2.39,2.39,0,1,1,2.39-2.38A2.45,2.45,0,0,1,23.7,46.61Zm17.55,0a2.39,2.39,0,1,1,2.39-2.38A2.44,2.44,0,0,1,41.25,46.61Z"/></g></g></svg>