<svg xmlns="http://www.w3.org/2000/svg" xmlns:xlink="http://www.w3.org/1999/xlink" viewBox="0 0 79.12 75.13"><defs><style>.cls-1{fill:url(#linear-gradient);}.cls-2{fill:url(#linear-gradient-2);}.cls-3{fill:none;stroke:#2b2b2b;stroke-linecap:round;stroke-miterlimit:10;stroke-width:3px;}.cls-4{fill:url(#linear-gradient-3);}.cls-5{fill:url(#linear-gradient-4);}</style><linearGradient id="linear-gradient" x1="36.78" y1="59.67" x2="43.64" y2="78.17" gradientUnits="userSpaceOnUse"><stop offset="0" stop-color="#c3d82e"/><stop offset="0.41" stop-color="#32b9ae"/><stop offset="0.63" stop-color="#00adee"/></linearGradient><linearGradient id="linear-gradient-2" x1="51.47" y1="130.64" x2="54.57" y2="142.14" gradientTransform="translate(177.71 -19.88) rotate(90)" xlink:href="#linear-gradient"/><linearGradient id="linear-gradient-3" x1="1.17" y1="36.65" x2="19.88" y2="55.98" xlink:href="#linear-gradient"/><linearGradient id="linear-gradient-4" x1="68.3" y1="14.49" x2="75.58" y2="30.91" xlink:href="#linear-gradient"/></defs><title>zxSole Distributors</title><g id="Layer_2" data-name="Layer 2"><g id="Layer_1-2" data-name="Layer 1"><path class="cls-1" d="M28.39,65.62c0-4,5.34-7.21,11.93-7.21s11.93,3.23,11.93,7.21v8H28.39Z"/><ellipse class="cls-2" cx="41.32" cy="33.14" rx="5.8" ry="7.76" transform="translate(-4.29 60.07) rotate(-69.3)"/><circle class="cls-3" cx="40.32" cy="36.88" r="9.55"/><line class="cls-3" x1="25.59" y1="36.88" x2="11.91" y2="42.37"/><line class="cls-3" x1="31.93" y1="25.31" x2="27.3" y2="16.27"/><line class="cls-3" x1="52.35" y1="29.16" x2="69.58" y2="21.47"/><circle class="cls-4" cx="7.72" cy="43.43" r="7.72"/><circle class="cls-3" cx="24" cy="9.22" r="7.72"/><circle class="cls-5" cx="71.39" cy="21.47" r="7.72"/><path class="cls-3" d="M23,62c0-5.79,7.77-10.49,17.36-10.49S57.68,56.19,57.68,62V73.63H23Z"/></g></g></svg>