<svg xmlns="http://www.w3.org/2000/svg" xmlns:xlink="http://www.w3.org/1999/xlink" viewBox="0 0 55.01 62.84"><defs><style>.cls-1{fill:url(#linear-gradient);}.cls-2{fill:none;stroke:#2b2b2b;stroke-linecap:round;stroke-linejoin:round;stroke-width:2.5px;}.cls-3{fill:#2b2b2b;}</style><linearGradient id="linear-gradient" x1="20.72" y1="23.08" x2="36.58" y2="62.03" gradientUnits="userSpaceOnUse"><stop offset="0" stop-color="#c3d82e"/><stop offset="0.41" stop-color="#32b9ae"/><stop offset="0.63" stop-color="#00adee"/></linearGradient></defs><title>zxTodays carbooking</title><g id="Layer_2" data-name="Layer 2"><g id="Layer_1-2" data-name="Layer 1"><path class="cls-1" d="M55,34.41A1.27,1.27,0,0,0,53.53,33h-.82a9.25,9.25,0,0,1-1.51,0,2.59,2.59,0,0,0-1.45.25,2.41,2.41,0,0,0-.94,1.13,1.78,1.78,0,0,1-.5.69l-.44.51-.13-.44a1.53,1.53,0,0,1-.12-.44,45.23,45.23,0,0,0-3.77-8.8,4.7,4.7,0,0,0-1.51-1.7,9.9,9.9,0,0,1-1.21,3.95,25.81,25.81,0,0,1,3,7.8v.26a125.64,125.64,0,0,0-33.44.06l.25-1a14.32,14.32,0,0,1,.69-2.2c.42-1.08,1.15-2.68,2.2-4.77l.23-.5a.91.91,0,0,1-.07-.14c-.06-.15-.11-.3-.16-.44-.56-1.54-.79-1.93-1.11-3a5.43,5.43,0,0,0-2.1,2.62L8.14,32.53a12.63,12.63,0,0,0-.57,1.7L7.2,35.29,7,35.42l-.38-.5c-.29-.38-.5-.67-.63-.88A1.65,1.65,0,0,0,4.43,33H1.35A1.27,1.27,0,0,0,0,34.23a11.09,11.09,0,0,0,0,1.63,1.27,1.27,0,0,0,1.38,1.32h5L6,37.56a10.07,10.07,0,0,0-3.2,5.15,18.77,18.77,0,0,0,.94,11.88,4,4,0,0,0,2.39,2.27.77.77,0,0,1,.5.81v3.27q0,1.89,2,1.89h.51a11.26,11.26,0,0,0,2.76-.13,1.32,1.32,0,0,0,1.1-.94A10.29,10.29,0,0,0,13.17,59v-.81l4.9.18c4.19.13,7.33.19,9.4.19s5.23-.08,9.46-.25l4.9-.12V61a2,2,0,0,0,.57,1.36,1.85,1.85,0,0,0,1.32.47h2.7a2,2,0,0,0,1.45-.51,1.87,1.87,0,0,0,.5-1.38q0-2.27.06-3.33a.9.9,0,0,1,.1-.38.5.5,0,0,1,.22-.25,5.3,5.3,0,0,0,3.11-3.93,41.68,41.68,0,0,0,.91-5.75,11.73,11.73,0,0,0-3.83-9.8l-.25-.32h4.77a1.84,1.84,0,0,0,1.17-.41A1.63,1.63,0,0,0,55,35.64,7.6,7.6,0,0,0,55,34.41ZM12.35,49.22a3.39,3.39,0,0,1-2.45,1,3.39,3.39,0,0,1-2.45-1,3.28,3.28,0,0,1-1-2.36,3.13,3.13,0,0,1,1-2.39,3.44,3.44,0,0,1,2.48-1,3.33,3.33,0,0,1,2.45,1,3.27,3.27,0,0,1,1,2.39A3.18,3.18,0,0,1,12.35,49.22Zm25-4.31c-.17.59-.44,1.43-.82,2.52l-.57,1.88a.94.94,0,0,1-1,.82q-7.43-.06-14.84,0a1,1,0,0,1-1-.75l-1.45-4.59c-.25-.8,0-1.32.92-1.32l17.75.12c.55,0,.89.11,1,.32S37.47,44.45,37.31,44.91Zm10.24,4.34a3.09,3.09,0,0,1-2.45.94,3.36,3.36,0,0,1-2.42-1,3.08,3.08,0,0,1-1-2.39,3.2,3.2,0,0,1,1.07-2.36,3.47,3.47,0,0,1,4.84,0,3.12,3.12,0,0,1,1,2.39A3.39,3.39,0,0,1,47.55,49.25Z"/><path class="cls-2" d="M42.39,8.51V25.77a5.57,5.57,0,0,1-5.57,5.57H18.19a5.57,5.57,0,0,1-5.57-5.57V8.51Z"/><path class="cls-3" d="M43.61,7.36V9.15H11.41V7.36a6.33,6.33,0,0,1,6.44-6.21h3v3a2.08,2.08,0,0,0,4.16,0v-3h5.13v3a2.08,2.08,0,0,0,4.15,0v-3h2.83A6.33,6.33,0,0,1,43.61,7.36Z"/><polyline class="cls-2" points="22.24 18.41 26.41 21.19 31.57 15.71"/><rect class="cls-3" x="22.12" width="2.05" height="5.15" rx="1.02"/><rect class="cls-3" x="31.08" width="2.05" height="5.15" rx="1.02"/></g></g></svg>