<svg xmlns="http://www.w3.org/2000/svg" xmlns:xlink="http://www.w3.org/1999/xlink" viewBox="0 0 56.7 64.45"><defs><style>.cls-1{fill:url(#linear-gradient);}.cls-2{fill:none;stroke:#2b2b2b;stroke-linecap:round;stroke-linejoin:round;stroke-width:2.73px;}</style><linearGradient id="linear-gradient" x1="21.35" y1="23.48" x2="37.7" y2="63.62" gradientUnits="userSpaceOnUse"><stop offset="0" stop-color="#c3d82e"/><stop offset="0.41" stop-color="#32b9ae"/><stop offset="0.63" stop-color="#00adee"/></linearGradient></defs><title>zxTotal Carbooking</title><g id="Layer_2" data-name="Layer 2"><g id="Layer_1-2" data-name="Layer 1"><path class="cls-1" d="M56.65,35.16a1.31,1.31,0,0,0-1.49-1.49h-.84a9.74,9.74,0,0,1-1.55,0,2.63,2.63,0,0,0-1.49.25,2.48,2.48,0,0,0-1,1.17,1.82,1.82,0,0,1-.51.71l-.46.52-.13-.45a1.74,1.74,0,0,1-.13-.46,46.15,46.15,0,0,0-3.88-9.06,4.73,4.73,0,0,0-3-2.47L42,23.82a8.15,8.15,0,0,0-2-.52l-1.94-.13c-2.3-.2-4.19-.34-5.74-.42a1.9,1.9,0,0,1-.75.48A9.61,9.61,0,0,0,28.73,25a1.25,1.25,0,0,1-.43.35c-.33.28-.67.54-1,.8,3,0,5.66.05,8,.17a29.5,29.5,0,0,1,4.28.64l1.69.39a1.28,1.28,0,0,1,.71.52,26.46,26.46,0,0,1,3.56,8.81V37A129.93,129.93,0,0,0,11.05,37l.25-1A13.82,13.82,0,0,1,12,33.8c.43-1.13,1.18-2.77,2.27-4.93l.38-.84a.71.71,0,0,1,.33-.42,1.84,1.84,0,0,1,.52-.23A25.26,25.26,0,0,1,21.1,26.3c-1-.64-2-1.19-2.9-1.85a2,2,0,0,1-.81-1.25l-.77.1a8,8,0,0,0-3.37,1.23A5.62,5.62,0,0,0,11,27.32L8.39,33.21A13.06,13.06,0,0,0,7.81,35l-.39,1.1-.2.13-.39-.52a9.9,9.9,0,0,1-.64-.9,1.7,1.7,0,0,0-1.62-1.1H1.39A1.3,1.3,0,0,0,0,35a11.92,11.92,0,0,0,0,1.69A1.31,1.31,0,0,0,1.46,38H6.58l-.39.38a10.39,10.39,0,0,0-3.31,5.32A19.41,19.41,0,0,0,3.85,56a4.13,4.13,0,0,0,2.47,2.33.81.81,0,0,1,.51.85v3.36c0,1.3.7,1.95,2.08,1.95h.52a12,12,0,0,0,2.85-.13,1.36,1.36,0,0,0,1.13-1,10.9,10.9,0,0,0,.16-2.85v-.85l5.06.2q6.47.19,9.68.19c2.14,0,5.39-.08,9.75-.26l5-.13v2.92A2,2,0,0,0,43.7,64a1.88,1.88,0,0,0,1.36.49h2.78a2,2,0,0,0,1.49-.52,1.92,1.92,0,0,0,.52-1.43c0-1.55,0-2.69.07-3.43a.92.92,0,0,1,.09-.39.6.6,0,0,1,.23-.26,5.48,5.48,0,0,0,3.21-4,44.44,44.44,0,0,0,.94-5.92,12.11,12.11,0,0,0-4-10.11L50.18,38H55.1a2,2,0,0,0,1.2-.42,1.8,1.8,0,0,0,.39-1.17A6.71,6.71,0,0,0,56.65,35.16ZM12.73,50.41a3.49,3.49,0,0,1-2.53,1,3.49,3.49,0,0,1-2.52-1A3.37,3.37,0,0,1,6.61,48a3.21,3.21,0,0,1,1-2.46,3.57,3.57,0,0,1,2.56-1,3.44,3.44,0,0,1,2.53,1,3.37,3.37,0,0,1,1,2.46A3.27,3.27,0,0,1,12.73,50.41ZM38.45,46c-.17.61-.45,1.47-.84,2.6L37,50.51a1,1,0,0,1-1,.84q-7.65-.06-15.29,0a1.09,1.09,0,0,1-1-.78l-1.49-4.72c-.26-.82,0-1.37.95-1.37l18.29.13c.56,0,.92.11,1.07.33A1.15,1.15,0,0,1,38.45,46ZM49,50.44a3.21,3.21,0,0,1-2.53,1,3.46,3.46,0,0,1-2.49-1,3.22,3.22,0,0,1-1-2.46,3.33,3.33,0,0,1,1.1-2.43,3.56,3.56,0,0,1,2.5-1,3.46,3.46,0,0,1,2.49,1,3.22,3.22,0,0,1,1,2.46A3.47,3.47,0,0,1,49,50.44Z"/><polygon class="cls-2" points="13.05 9.02 13.05 18.91 24.96 26.96 47.49 11.9 47.49 1.36 25.06 16.33 13.05 9.02"/></g></g></svg>