<svg width="193" height="45" viewBox="0 0 193 45" fill="none" xmlns="http://www.w3.org/2000/svg">
<path d="M33.5234 21.6604C33.5331 21.8633 33.4677 22.0625 33.3401 22.2191C33.1803 22.351 32.9802 22.4223 32.7742 22.4208H30.4533L30.5765 22.5761C31.9633 23.9189 32.5841 25.5302 32.4389 27.41C32.3569 28.3651 32.2085 29.3132 31.9948 30.2471C31.7808 31.1875 31.2761 31.8332 30.4805 32.1844C30.432 32.2122 30.3942 32.2556 30.373 32.3078C30.3438 32.3653 30.3281 32.4289 30.3272 32.4935C30.3071 32.8447 30.2971 33.3933 30.2971 34.1363C30.3041 34.2609 30.2859 34.3856 30.2438 34.5028C30.2017 34.6201 30.1365 34.7274 30.0521 34.8183C29.9573 34.9054 29.8462 34.9723 29.7253 35.0149C29.6045 35.0576 29.4764 35.0751 29.3487 35.0665H28.0364C27.8006 35.0777 27.57 34.9942 27.3945 34.8343C27.2204 34.6571 27.1213 34.4182 27.118 34.1682V32.7722L24.7312 32.8346C22.6711 32.9168 21.1362 32.9584 20.1267 32.9594C19.1171 32.9603 17.5923 32.9294 15.5522 32.8665L13.1654 32.7722V33.1756C13.1855 33.8373 13.1602 34.292 13.0895 34.5397C13.0544 34.6615 12.985 34.7702 12.8898 34.8527C12.7947 34.9352 12.6779 34.9878 12.5537 35.0041C12.3292 35.067 11.8803 35.0878 11.207 35.0665H10.962C10.3087 35.0665 9.98254 34.7564 9.9835 34.1363V32.5255C9.99316 32.4405 9.9746 32.3547 9.93075 32.2817C9.8869 32.2086 9.82027 32.1524 9.74138 32.122C9.48033 32.0304 9.24155 31.8835 9.04095 31.6911C8.84036 31.4987 8.68256 31.2651 8.57806 31.0061C7.78342 28.8989 7.6306 26.9461 8.11962 25.1476C8.34311 24.1985 8.86316 23.3515 9.67978 22.6066L9.86315 22.4208H7.44913C7.0413 22.4208 6.81686 22.2036 6.77579 21.7692C6.75573 21.5012 6.75573 21.2319 6.77579 20.9638C6.77608 20.8798 6.79316 20.7967 6.826 20.7196C6.85883 20.6424 6.90674 20.5728 6.96684 20.5149C7.02695 20.457 7.09799 20.412 7.17571 20.3827C7.25342 20.3534 7.3362 20.3402 7.41905 20.3442H8.91187C9.07743 20.3415 9.23977 20.3906 9.37671 20.4849C9.51365 20.5792 9.61849 20.714 9.67691 20.8709C9.7711 21.0217 9.87345 21.167 9.9835 21.3063L10.1712 21.553L10.2629 21.4906L10.4462 20.9638C10.5189 20.6787 10.6108 20.3989 10.7213 20.1265L11.9462 17.3068C12.1481 16.755 12.5243 16.2861 13.0164 15.9732C13.4949 15.658 14.0376 15.4566 14.6038 15.384C16.3574 15.0938 18.4992 14.9907 21.0293 15.0749C21.8659 15.0952 23.0999 15.1779 24.7312 15.323L25.6438 15.384C25.9586 15.4293 26.2669 15.5126 26.5622 15.6321L26.6539 15.6641C26.9617 15.7453 27.2489 15.8924 27.496 16.0954C27.7431 16.2984 27.9445 16.5526 28.0865 16.841C28.8488 18.2171 29.4641 19.6717 29.9217 21.1801C29.9303 21.2556 29.9511 21.3291 29.9833 21.3977L30.0449 21.614L30.2584 21.3673C30.3658 21.275 30.4498 21.1581 30.5034 21.0262C30.5944 20.7954 30.7555 20.5997 30.9633 20.4675C31.181 20.3581 31.4254 20.3153 31.6667 20.3442C31.9108 20.3651 32.1562 20.3651 32.4002 20.3442H32.8071C33.2751 20.3442 33.5096 20.5817 33.5105 21.0567C33.5316 21.2572 33.5359 21.4592 33.5234 21.6604V21.6604ZM12.7671 28.3562C12.9242 28.208 13.0489 28.0281 13.1333 27.8282C13.2176 27.6282 13.2598 27.4127 13.2571 27.1952C13.2592 26.9754 13.2168 26.7574 13.1325 26.5547C13.0482 26.352 12.9239 26.169 12.7671 26.0169C12.612 25.8564 12.4261 25.7297 12.2209 25.6446C12.0157 25.5595 11.7955 25.5178 11.5737 25.522C11.35 25.5188 11.1279 25.5609 10.9205 25.6458C10.7131 25.7308 10.5246 25.857 10.366 26.0169C10.2056 26.1662 10.0789 26.3487 9.99431 26.552C9.90976 26.7553 9.86943 26.9747 9.87605 27.1952C9.87825 27.4132 9.92408 27.6285 10.0108 27.8281C10.0974 28.0276 10.2232 28.2073 10.3803 28.3562C10.7031 28.6646 11.13 28.8364 11.5737 28.8364C12.0174 28.8364 12.4444 28.6646 12.7671 28.3562ZM12.0938 21.4906L11.972 21.955C17.373 21.212 22.8476 21.2017 28.2513 21.9245V21.8012C27.9448 20.3071 27.3745 18.8814 26.5679 17.5927C26.4893 17.4712 26.3695 17.383 26.2312 17.3446L25.4361 17.1588C24.7707 17.0077 24.0957 16.9039 23.4161 16.8482C21.8249 16.767 19.9075 16.7467 17.664 16.7873C16.4489 16.7855 15.2408 16.9735 14.0823 17.3446C13.9954 17.3672 13.9127 17.4039 13.8373 17.4534C13.7998 17.4749 13.7668 17.5038 13.7405 17.5385C13.7142 17.5731 13.695 17.6128 13.684 17.6551L13.5007 18.0571C12.9906 19.0903 12.6334 19.8754 12.429 20.4124C12.2889 20.7621 12.1768 21.1227 12.0938 21.4906V21.4906ZM24.9275 25.7368C24.8559 25.6338 24.6883 25.5815 24.4232 25.5815H15.7972C15.3674 25.5815 15.2155 25.7789 15.3373 26.1707L16.0451 28.4331C16.0761 28.5402 16.1404 28.6343 16.2284 28.7014C16.3164 28.7686 16.4234 28.8053 16.5336 28.8061C18.9405 28.7857 21.3478 28.7857 23.7556 28.8061C23.8727 28.8149 23.9886 28.778 24.0797 28.703C24.1708 28.628 24.2302 28.5205 24.2456 28.4026L24.5206 27.4724C24.704 26.9355 24.8368 26.5224 24.9189 26.2331C24.9963 26.0053 25.002 25.8413 24.9275 25.7368ZM29.9003 28.3722C30.0571 28.2193 30.1824 28.0365 30.269 27.8342C30.3556 27.6319 30.4016 27.4142 30.4045 27.1938C30.4114 26.9734 30.3714 26.754 30.2871 26.5507C30.2028 26.3473 30.0762 26.1648 29.916 26.0154C29.7619 25.8576 29.5782 25.7325 29.3757 25.6475C29.1733 25.5626 28.9561 25.5194 28.7369 25.5206C28.2972 25.5168 27.8738 25.6895 27.5593 26.0009C27.3985 26.1478 27.2694 26.3268 27.1799 26.5265C27.0904 26.7263 27.0425 26.9425 27.0392 27.1619C27.0324 27.3822 27.0727 27.6014 27.1573 27.8045C27.2418 28.0077 27.3687 28.1899 27.5292 28.3388C27.6828 28.497 27.8661 28.6225 28.0684 28.7077C28.2707 28.793 28.4878 28.8363 28.7069 28.8351C28.9274 28.85 29.1486 28.8164 29.3551 28.7365C29.5616 28.6566 29.7486 28.5323 29.9031 28.3722H29.9003Z" fill="url(#paint0_linear)"/>
<path d="M41.1422 24.1681C41.1518 25.8545 40.9633 27.5362 40.5806 29.1776C40.5692 29.2284 40.5591 29.2806 40.5448 29.3314L40.5047 29.4765L40.4216 29.7827L40.3399 30.0875C40.3113 30.1891 40.2855 30.2906 40.2511 30.3908L40.0563 30.9916C40.0233 31.0917 39.9947 31.1933 39.9574 31.292L39.8457 31.5822L39.6208 32.1728L39.37 32.7533L39.2425 33.0435C39.201 33.1393 39.1508 33.2322 39.0993 33.3338L38.8199 33.8997C38.7755 33.9955 38.721 34.087 38.6766 34.1784L38.5233 34.4556L38.37 34.7313L38.2927 34.8691L38.2096 35.0041C37.9861 35.3611 37.7712 35.7297 37.5262 36.0664L37.3471 36.3276L37.2569 36.4582L37.2125 36.5221L37.1638 36.5859L36.7812 37.088C36.7168 37.1722 36.6552 37.2578 36.5893 37.3391L36.3887 37.5872L35.9818 38.0719L35.552 38.5363L35.3386 38.7685C35.2655 38.844 35.1953 38.9136 35.1136 38.9905L34.6695 39.4331L34.6136 39.4897L34.5549 39.542L34.436 39.6465L34.201 39.8569C33.893 40.1471 33.5592 40.4025 33.234 40.6696L33.1108 40.7682L32.9847 40.8611L32.7297 41.0483L32.4747 41.2355C32.3902 41.2979 32.3071 41.3618 32.2182 41.4184L31.691 41.7667L31.5592 41.8537L31.4933 41.8973L31.426 41.9379L31.1552 42.099C30.9747 42.2064 30.7942 42.3152 30.6122 42.4211L30.0549 42.7114L29.7684 42.8565C29.6738 42.9029 29.5779 42.9465 29.4819 42.9915L28.9088 43.2585C28.8615 43.2817 28.8128 43.302 28.7655 43.3223L28.6223 43.3818L28.3357 43.5023C28.1395 43.5792 27.9475 43.6677 27.7484 43.733L27.1524 43.9434L27.0091 43.9957C26.9604 44.0131 26.9088 44.0262 26.8658 44.0421L26.5635 44.1321C26.3615 44.1901 26.161 44.2555 25.9575 44.3091L25.3444 44.4543L25.0378 44.5297L24.7269 44.5892L24.1065 44.7068C24.0034 44.7285 23.8988 44.7387 23.7957 44.7547L23.4819 44.7982L23.1696 44.8417L23.0134 44.8635L22.8558 44.878C21.1763 45.0496 19.4827 45.0198 17.81 44.7895C16.1349 44.546 14.495 44.0982 12.9261 43.4558L12.853 43.4283L12.78 43.3949L12.6367 43.331L12.3502 43.2004L12.0637 43.0713C12.0164 43.0495 11.9662 43.0292 11.9204 43.0045L11.7771 42.9334L11.2041 42.6432L11.0608 42.5721C11.0135 42.5474 10.9677 42.5198 10.9175 42.4937L10.641 42.3355L10.3631 42.1788C10.2714 42.1251 10.1768 42.0758 10.0895 42.0163L9.55078 41.6738C9.46195 41.6157 9.37026 41.562 9.28287 41.5011L9.02213 41.3168L8.50064 40.9482L7.99778 40.5549L7.7356 40.3721C7.65251 40.3053 7.57371 40.2342 7.49205 40.166L7.00638 39.7481C6.96627 39.7132 6.92615 39.6769 6.88891 39.6407L6.77286 39.5304L6.53934 39.3098C6.22415 39.0196 5.93476 38.7075 5.6382 38.3999L5.52788 38.2838L5.4147 38.1677L5.2041 37.9268L4.9935 37.6845C4.9233 37.6046 4.85024 37.5234 4.7872 37.4392C4.52359 37.1011 4.24709 36.7731 4.00497 36.4234C3.88176 36.2478 3.75426 36.0751 3.63248 35.898L3.28292 35.3582L3.10813 35.0767L2.94767 34.798L2.62389 34.2408C2.52074 34.0521 2.42476 33.8591 2.3259 33.669C2.22705 33.4789 2.1239 33.2888 2.03937 33.0885L1.77003 32.5081L1.70413 32.3629L1.64396 32.2178L1.52362 31.9174L1.40327 31.617C1.36459 31.5169 1.32161 31.4182 1.28866 31.3152L1.07806 30.7042C1.04511 30.6012 1.00643 30.5011 0.976342 30.3966L0.886084 30.086L0.70557 29.4635L0.562305 28.8336C0.512162 28.6232 0.459154 28.4142 0.419039 28.2009C-0.265802 24.7864 -0.109326 21.2536 0.874623 17.9149C0.900411 17.8089 0.939093 17.7074 0.970611 17.6043L1.07233 17.2952L1.17262 16.9847L1.22419 16.8308L1.2815 16.6857C1.43909 16.2808 1.58235 15.8716 1.76573 15.4769C1.85456 15.2795 1.93909 15.0793 2.02934 14.8819L2.31587 14.3014L2.45914 14.0112C2.50928 13.9154 2.56372 13.8225 2.61673 13.7209L2.93478 13.1535C2.96057 13.1056 2.98922 13.0592 3.01787 13.0084L3.10527 12.8633L3.27718 12.5876C3.39466 12.4047 3.50354 12.2161 3.63105 12.0405L4.0107 11.5035L4.10383 11.37C4.13534 11.3265 4.16973 11.2844 4.20268 11.2409L4.40039 10.984L4.59952 10.7257C4.66543 10.6401 4.7299 10.5515 4.80153 10.4703L5.22273 9.97541C5.29293 9.89269 5.36599 9.80852 5.43476 9.72871L5.65682 9.49217L6.10095 9.01617L7.15681 10.1002L6.73704 10.5356L6.52501 10.7518C6.45624 10.8244 6.39178 10.8969 6.32444 10.9767L5.92473 11.431C5.85596 11.505 5.79579 11.5862 5.73132 11.6631L5.53791 11.9011L5.3488 12.1377C5.31872 12.1783 5.28577 12.2161 5.25568 12.2567L5.16686 12.38L4.81156 12.8705C4.68835 13.0316 4.5852 13.2043 4.47202 13.3727L4.30726 13.6266L4.22417 13.7543C4.19526 13.7959 4.16848 13.8391 4.14394 13.8835L3.83735 14.4073C3.78578 14.4944 3.73277 14.5815 3.68406 14.6686L3.54079 14.9385L3.25426 15.4769C3.16687 15.6597 3.08378 15.844 2.99782 16.0283C2.81874 16.3926 2.67977 16.7742 2.52361 17.1501L2.46773 17.2952L2.41759 17.4403L2.31731 17.7306L2.21702 18.0208C2.1855 18.1166 2.14682 18.2109 2.12103 18.3111C1.13878 21.4375 0.931151 24.7607 1.51645 27.9876C1.54511 28.1893 1.59238 28.3881 1.63536 28.5884L1.76717 29.1877L1.92762 29.7798L2.00642 30.0701C2.03364 30.1687 2.06802 30.2645 2.09954 30.3603L2.28722 30.9408C2.31731 31.038 2.35456 31.1338 2.39037 31.231L2.49925 31.5212L2.60813 31.8115L2.66258 31.9566C2.6812 32.003 2.70269 32.0495 2.72275 32.1017L2.97489 32.6532C3.05226 32.8433 3.14681 33.0247 3.23707 33.209C3.32733 33.3933 3.41615 33.5761 3.51071 33.7575L3.8087 34.2945L3.95196 34.5629L4.11385 34.8227L4.4405 35.3379C4.55225 35.5077 4.67116 35.6746 4.78577 35.8443C5.0107 36.1868 5.26857 36.5032 5.51356 36.8312C5.57373 36.9139 5.64106 36.9922 5.70697 37.0706L5.90324 37.3042L6.10095 37.5393L6.1998 37.6569L6.30295 37.7701C6.58948 38.069 6.85166 38.3767 7.14965 38.6582L7.36741 38.873L7.47629 38.9804C7.51354 39.0167 7.54936 39.0515 7.58804 39.0849L8.04506 39.4941C8.12242 39.5623 8.19692 39.632 8.27428 39.6973L8.51354 39.8903L8.98918 40.2763L9.48344 40.6347L9.73129 40.8161C9.81295 40.8756 9.90035 40.9293 9.98487 40.9874L10.4963 41.3255C10.5794 41.385 10.6697 41.4329 10.7571 41.4866L11.0192 41.6506L11.2829 41.8073L11.4147 41.8842L11.5508 41.9553L12.0909 42.2456L12.227 42.3167C12.2714 42.3413 12.3187 42.3602 12.3702 42.3834L12.6482 42.5126L12.9247 42.6432L13.0679 42.7085L13.1367 42.7404L13.2083 42.7694C14.7114 43.4182 16.2863 43.8806 17.8989 44.1466C19.513 44.3982 21.1508 44.4571 22.7785 44.3222C22.8286 44.3222 22.8802 44.3222 22.9318 44.3106L23.0836 44.2932L23.3888 44.2569L23.6939 44.2206C23.7957 44.2076 23.8974 44.1989 23.9991 44.18L24.6051 44.0755L24.9074 44.0233L25.2083 43.9565L25.8085 43.8215C26.0077 43.7737 26.204 43.7142 26.4031 43.6605L26.6996 43.5777C26.7484 43.5647 26.7985 43.5516 26.8429 43.5357L26.9862 43.4878L27.5721 43.2933C27.7684 43.2324 27.9575 43.1482 28.1452 43.0785L28.4317 42.9668L28.575 42.9116C28.6237 42.8928 28.671 42.8739 28.7183 42.8521L29.2813 42.5996C29.3758 42.5576 29.4704 42.5169 29.5678 42.4734L29.8429 42.3283L30.3945 42.0482C30.575 41.9495 30.7526 41.845 30.9331 41.7434L31.201 41.5911L31.2684 41.5519L31.3343 41.5112L31.4647 41.4271L31.9876 41.0948C32.0764 41.0411 32.1595 40.9816 32.244 40.9206L32.4976 40.7421L32.7497 40.5636L32.8773 40.4736L32.999 40.3793C33.3242 40.1225 33.6566 39.8758 33.9646 39.5986L34.201 39.3969L34.3185 39.2953L34.3772 39.2445L34.4345 39.1908L34.8858 38.7627C34.9603 38.6916 35.0377 38.6176 35.1093 38.5479L35.3257 38.323L35.7555 37.8746L36.1652 37.4044L36.3701 37.1693C36.4374 37.0895 36.499 37.0068 36.5649 36.9255L36.9517 36.4364L37.0004 36.3755L37.0448 36.3116L37.1365 36.1854L37.3185 35.9314C37.5678 35.5976 37.787 35.2421 38.0133 34.8924L38.0993 34.7618L38.1781 34.6268L38.3342 34.3554L38.4918 34.0855C38.5434 33.9941 38.5978 33.9056 38.6437 33.8112L38.9302 33.2554C38.9775 33.1625 39.0291 33.0711 39.0735 32.9753L39.2039 32.6851L39.4646 32.1148L39.6981 31.5343L39.8142 31.2441C39.8528 31.1468 39.8844 31.0453 39.9188 30.9538L40.1236 30.3588C40.1594 30.2602 40.1867 30.16 40.2167 30.0584L40.3041 29.7566L40.3915 29.4548L40.4359 29.3096C40.4503 29.2588 40.4603 29.208 40.4732 29.1573C40.8916 27.5271 41.1162 25.8522 41.1422 24.1681Z" fill="url(#paint1_linear)"/>
<path d="M15.5164 0.0013733C15.6598 0.00310953 15.8013 0.0339251 15.9327 0.0920001C16.0641 0.150075 16.1827 0.234232 16.2815 0.339501C16.3801 0.44329 16.4564 0.566609 16.5057 0.701715C16.555 0.836821 16.5762 0.980795 16.568 1.1246C16.5669 1.26889 16.536 1.41137 16.4773 1.54284C16.4186 1.67431 16.3333 1.79186 16.227 1.88792L13.8961 4.06471C13.8216 4.12566 13.7528 4.19096 13.6726 4.26207L13.5924 4.3535L13.7199 4.74967L15.3803 10.2642C15.4075 10.3831 15.4041 10.507 15.3703 10.6241C15.3439 10.7439 15.2807 10.8521 15.1898 10.9332L13.9935 12.0724C13.9639 12.1095 13.925 12.1378 13.8809 12.1544C13.8368 12.171 13.7891 12.1752 13.7428 12.1667C13.6952 12.1554 13.6511 12.1324 13.6144 12.0997C13.5777 12.0671 13.5495 12.0258 13.5322 11.9795L11.2829 7.10205C11.2296 6.96359 11.1694 6.82797 11.1024 6.69572C11.0867 6.67976 11.0451 6.69572 10.9763 6.75522C10.9076 6.81472 10.8331 6.87422 10.7614 6.94533L7.43195 10.0262C7.40667 10.0382 7.38267 10.0528 7.36032 10.0697C7.33453 10.0901 7.32737 10.1423 7.34026 10.2265C7.35773 10.3272 7.38907 10.4249 7.43338 10.5167L8.24283 12.4236C8.28977 12.5334 8.29934 12.6559 8.27005 12.7719C8.24494 12.8922 8.18511 13.0023 8.09813 13.0882L7.79441 13.3785C7.75974 13.4158 7.71696 13.4444 7.66946 13.462C7.62195 13.4797 7.57104 13.4858 7.52077 13.48C7.47027 13.4712 7.42259 13.4503 7.38171 13.419C7.34083 13.3877 7.30795 13.3469 7.28582 13.3001L6.1397 11.444C5.99255 11.2125 5.82879 10.9923 5.64973 10.7852L5.58669 10.7402C5.40055 10.5392 5.19353 10.3592 4.96922 10.2033L3.19273 9.01763C3.15169 8.99047 3.11741 8.95407 3.09256 8.91128C3.06771 8.86848 3.05296 8.82045 3.04946 8.77093C3.04449 8.72037 3.05108 8.66933 3.06872 8.62176C3.08636 8.5742 3.11457 8.53139 3.15118 8.49665L3.51794 8.14691C3.60765 8.06541 3.72045 8.01463 3.84029 8.00179C3.95748 7.98377 4.07731 7.99832 4.18699 8.04388L5.59099 8.76947C5.68223 8.81133 5.7786 8.84061 5.87752 8.85655C5.97064 8.87106 6.03225 8.85655 6.0652 8.81591C6.10288 8.77051 6.14979 8.73388 6.20273 8.70852L9.36317 5.58411C9.40128 5.55248 9.43114 5.51186 9.45012 5.4658C9.46911 5.41975 9.47664 5.36968 9.47205 5.31999C9.46495 5.27258 9.44518 5.22804 9.41488 5.19121C9.38457 5.15437 9.34489 5.12664 9.30013 5.11102L4.81449 2.85442C4.76834 2.83875 4.72728 2.81065 4.6957 2.77313C4.66413 2.73561 4.64325 2.69009 4.6353 2.64145C4.62734 2.59281 4.63262 2.5429 4.65056 2.49707C4.6685 2.45124 4.69843 2.41123 4.73713 2.38133L6.07523 1.10428C6.16842 1.02018 6.28311 0.964354 6.40617 0.943197C6.5244 0.914245 6.6486 0.923377 6.76147 0.969318L11.6941 2.77025C11.804 2.81608 11.9254 2.82523 12.0408 2.79637C12.1612 2.77407 12.273 2.71773 12.3631 2.63383L14.7414 0.291612C14.8444 0.192585 14.9662 0.115797 15.0995 0.0659059C15.2327 0.0160144 15.3746 -0.00594045 15.5164 0.0013733V0.0013733Z" fill="url(#paint2_linear)"/>
<path d="M62.771 13.2885V15.9645C61.6493 14.3929 59.4373 12.9881 56.4674 12.9881C51.6809 12.9881 47.8843 16.7336 47.8843 22.4208C47.8813 23.4424 48.0143 24.4596 48.2797 25.4451C49.3643 29.4446 52.592 32.0147 56.4717 32.0147C59.443 32.0147 61.6221 30.5098 62.7753 28.9381V32.0147C62.7753 35.6934 60.5977 37.4987 57.6923 37.4987C55.0849 37.4987 53.0705 36.1927 52.5089 34.2887H48.784C49.2454 38.368 52.8442 40.8089 57.6966 40.8089C63.3742 40.8089 66.579 37.0358 66.579 32.0147V13.2943L62.771 13.2885ZM57.2582 28.7045C56.3343 28.6986 55.4275 28.4508 54.626 27.9852C53.8245 27.5197 53.1554 26.8521 52.6837 26.0474C52.0992 25.0765 51.7453 23.8561 51.7453 22.4194C51.7453 18.4402 54.4531 16.2997 57.2582 16.2997C60.0977 16.2997 62.771 18.5404 62.771 22.4861C62.7929 23.6721 62.5137 24.8439 61.9602 25.8892C61.4991 26.7437 60.8189 27.4562 59.9913 27.9517C59.1638 28.4472 58.2195 28.7073 57.2582 28.7045V28.7045Z" fill="url(#paint3_linear)"/>
<path d="M85.1533 13.2885V15.9645C84.0301 14.4596 81.9184 12.9881 78.8497 12.9881C74.0632 12.9881 70.2666 16.7336 70.2666 22.4208C70.2648 23.1377 70.3281 23.8533 70.4558 24.5585C71.2767 29.0571 74.6821 32.0176 78.7838 32.0176C81.8196 32.0176 83.9986 30.5461 85.1548 28.9701V31.7128H88.9513V13.2827L85.1533 13.2885ZM85.1533 22.4847C85.1533 26.4639 82.4786 28.7045 79.6405 28.7045C77.1448 28.7045 74.7279 26.8789 74.2236 23.6761C74.1588 23.26 74.1267 22.8393 74.1276 22.4179C74.1276 18.4388 76.8339 16.2983 79.6405 16.2983C81.9327 16.2983 84.1089 17.7495 84.8697 20.3848C85.0627 21.0675 85.1582 21.7746 85.1533 22.4847Z" fill="url(#paint4_linear)"/>
<path d="M101.794 13.0969C100.658 13.2719 99.6 13.7852 98.7535 14.5714C98.3243 14.9787 97.9569 15.4482 97.6633 15.9645V13.2885H93.9011V31.7186H97.6633V22.016C97.6633 18.0977 99.3825 16.9368 102.153 16.9368H103.11V12.9881C102.669 12.9863 102.229 13.0227 101.794 13.0969V13.0969Z" fill="url(#paint5_linear)"/>
<path d="M106.576 13.2885V31.7186H110.339V13.2885H106.576ZM110.865 8.31088C110.846 7.90203 110.724 7.50487 110.512 7.15646C110.3 6.80806 110.004 6.51975 109.652 6.31844C109.3 6.11714 108.904 6.00939 108.5 6.00525C108.096 6.00111 107.697 6.10072 107.341 6.29478C106.985 6.48884 106.684 6.77103 106.465 7.11502C106.246 7.45901 106.116 7.8536 106.089 8.26197C106.061 8.67034 106.136 9.07918 106.306 9.45036C106.476 9.82154 106.737 10.143 107.063 10.3846C107.48 10.6898 107.982 10.852 108.496 10.8476C108.811 10.848 109.123 10.7849 109.413 10.662C109.704 10.539 109.968 10.3587 110.189 10.1315C110.41 9.90434 110.584 9.63483 110.702 9.33869C110.819 9.04256 110.877 8.72573 110.872 8.40666C110.868 8.37474 110.868 8.34281 110.865 8.31088V8.31088Z" fill="url(#paint6_linear)"/>
<path d="M124.898 13.1884C121.365 13.1884 118.856 15.0952 117.735 17.5028V6.9671H115.457V31.7143H117.735V27.7017C118.825 30.0744 121.301 31.9813 124.898 31.9813C129.816 31.9813 133.481 28.2691 133.481 22.5485C133.481 16.8279 129.849 13.1884 124.898 13.1884ZM124.435 29.9409C120.77 29.9409 117.733 27.1329 117.733 22.5848C117.733 18.0368 120.77 15.2287 124.435 15.2287C128.232 15.2287 131.137 17.9033 131.137 22.5514C131.137 27.1662 128.232 29.9409 124.435 29.9409V29.9409Z" fill="url(#paint7_linear)"/>
<path d="M145.7 13.1884C140.649 13.1884 136.688 16.767 136.688 22.5848C136.688 28.3693 140.556 31.9813 145.634 31.9813C150.713 31.9813 154.712 28.3693 154.712 22.5848C154.706 16.767 150.778 13.1884 145.7 13.1884ZM145.634 29.9409C142.196 29.9409 139.031 27.6001 139.031 22.5848C139.031 17.5695 142.233 15.2287 145.667 15.2287C149.101 15.2287 152.335 17.5695 152.335 22.5848C152.335 27.6001 149.028 29.9409 145.629 29.9409H145.634Z" fill="url(#paint8_linear)"/>
<path d="M166.888 13.1884C161.836 13.1884 157.875 16.767 157.875 22.5848C157.875 28.3693 161.743 31.9813 166.822 31.9813C171.9 31.9813 175.899 28.3693 175.899 22.5848C175.899 16.767 171.971 13.1884 166.888 13.1884ZM166.822 29.9409C163.383 29.9409 160.219 27.6001 160.219 22.5848C160.219 17.5695 163.421 15.2287 166.855 15.2287C170.289 15.2287 173.522 17.5695 173.522 22.5848C173.522 27.6001 170.221 29.9409 166.822 29.9409Z" fill="url(#paint9_linear)"/>
<path d="M184.382 22.5514L192.932 13.4568H189.697L182.433 21.6154V6.9671H180.123V31.7143H182.433V23.5208L189.862 31.7143H192.998L184.382 22.5514Z" fill="url(#paint10_linear)"/>
<g opacity="0.25">
<path opacity="0.25" d="M66.5675 13.2885V25.284C64.9357 25.5496 63.3999 25.747 61.9601 25.8877C62.5136 24.8424 62.7929 23.6706 62.771 22.4847C62.771 18.5389 60.0976 16.2982 57.2581 16.2982C54.453 16.2982 51.7453 18.4387 51.7453 22.4179C51.7453 23.856 52.0991 25.0765 52.6836 26.0459C51.2047 25.9395 49.7338 25.7388 48.2797 25.4451C48.0154 24.4585 47.8838 23.4402 47.8885 22.4179C47.8885 16.7336 51.6851 12.9852 56.4716 12.9852C59.4429 12.9852 61.6549 14.3899 62.7753 15.9616V13.2885H66.5675Z" fill="white"/>
<path opacity="0.25" d="M88.9498 13.2885V18.8422C87.5544 19.3946 86.1944 19.9088 84.8697 20.3848C84.1089 17.7538 81.9284 16.2982 79.6405 16.2982C76.8339 16.2982 74.1276 18.4387 74.1276 22.4179C74.1267 22.8392 74.1588 23.2599 74.2236 23.6761C72.9208 24.007 71.6644 24.3001 70.4543 24.5555C70.3267 23.8504 70.2634 23.1348 70.2652 22.4179C70.2652 16.7336 74.0617 12.9852 78.8482 12.9852C81.9184 12.9852 84.0301 14.4567 85.1519 15.9616V13.2885H88.9498Z" fill="white"/>
<path opacity="0.25" d="M93.9011 13.2885H97.6633V15.0836C96.3834 15.6796 95.1294 16.2451 93.9011 16.7801V13.2885Z" fill="white"/>
<path opacity="0.25" d="M98.7534 14.5713C99.5999 13.7852 100.658 13.2719 101.794 13.0969C100.765 13.6077 99.7515 14.0992 98.7534 14.5713Z" fill="white"/>
<path opacity="0.25" d="M110.865 8.31091C109.577 9.0307 108.309 9.72195 107.063 10.3847C106.73 10.1441 106.464 9.82165 106.289 9.44786C106.113 9.07407 106.035 8.6612 106.061 8.2482C106.087 7.83519 106.216 7.43565 106.436 7.08726C106.657 6.73887 106.961 6.4531 107.321 6.25691C107.681 6.06072 108.084 5.96057 108.492 5.9659C108.901 5.97123 109.301 6.08187 109.656 6.28739C110.011 6.4929 110.308 6.78652 110.519 7.14055C110.731 7.49459 110.85 7.89736 110.865 8.31091V8.31091Z" fill="white"/>
</g>
<defs>
<linearGradient id="paint0_linear" x1="14.7872" y1="2.79346" x2="29.1846" y2="55.0035" gradientUnits="userSpaceOnUse">
<stop stop-color="#C3D82E"/>
<stop offset="0.41" stop-color="#32B9AE"/>
<stop offset="0.63" stop-color="#00ADEE"/>
</linearGradient>
<linearGradient id="paint1_linear" x1="4161.57" y1="721.253" x2="7298.48" y2="13900.3" gradientUnits="userSpaceOnUse">
<stop stop-color="#C3D82E"/>
<stop offset="0.41" stop-color="#32B9AE"/>
<stop offset="0.63" stop-color="#00ADEE"/>
</linearGradient>
<linearGradient id="paint2_linear" x1="912.394" y1="391.387" x2="2232.05" y2="5252.59" gradientUnits="userSpaceOnUse">
<stop stop-color="#C3D82E"/>
<stop offset="0.41" stop-color="#32B9AE"/>
<stop offset="0.63" stop-color="#00ADEE"/>
</linearGradient>
<linearGradient id="paint3_linear" x1="28188.4" y1="635.06" x2="-5270.01" y2="3947.92" gradientUnits="userSpaceOnUse">
<stop stop-color="#C3D82E"/>
<stop offset="0.41" stop-color="#32B9AE"/>
<stop offset="0.63" stop-color="#00ADEE"/>
</linearGradient>
<linearGradient id="paint4_linear" x1="28184.2" y1="360.276" x2="-4891.66" y2="5145.68" gradientUnits="userSpaceOnUse">
<stop stop-color="#C3D82E"/>
<stop offset="0.41" stop-color="#32B9AE"/>
<stop offset="0.63" stop-color="#00ADEE"/>
</linearGradient>
<linearGradient id="paint5_linear" x1="13968.4" y1="604.127" x2="-2587.97" y2="1803.57" gradientUnits="userSpaceOnUse">
<stop stop-color="#C3D82E"/>
<stop offset="0.41" stop-color="#32B9AE"/>
<stop offset="0.63" stop-color="#00ADEE"/>
</linearGradient>
<linearGradient id="paint6_linear" x1="7314.43" y1="532.875" x2="-1335.25" y2="770.281" gradientUnits="userSpaceOnUse">
<stop stop-color="#C3D82E"/>
<stop offset="0.41" stop-color="#32B9AE"/>
<stop offset="0.63" stop-color="#00ADEE"/>
</linearGradient>
<linearGradient id="paint7_linear" x1="27282.8" y1="908.979" x2="-4928.6" y2="4328.98" gradientUnits="userSpaceOnUse">
<stop stop-color="#C3D82E"/>
<stop offset="0.41" stop-color="#32B9AE"/>
<stop offset="0.63" stop-color="#00ADEE"/>
</linearGradient>
<linearGradient id="paint8_linear" x1="27427" y1="1560.41" x2="-4509.73" y2="6073.77" gradientUnits="userSpaceOnUse">
<stop stop-color="#C3D82E"/>
<stop offset="0.41" stop-color="#32B9AE"/>
<stop offset="0.63" stop-color="#00ADEE"/>
</linearGradient>
<linearGradient id="paint9_linear" x1="27505" y1="1961.45" x2="-4431.77" y2="6474.82" gradientUnits="userSpaceOnUse">
<stop stop-color="#C3D82E"/>
<stop offset="0.41" stop-color="#32B9AE"/>
<stop offset="0.63" stop-color="#00ADEE"/>
</linearGradient>
<linearGradient id="paint10_linear" x1="19711.1" y1="2522.02" x2="-3421.94" y2="4295.44" gradientUnits="userSpaceOnUse">
<stop stop-color="#C3D82E"/>
<stop offset="0.41" stop-color="#32B9AE"/>
<stop offset="0.63" stop-color="#00ADEE"/>
</linearGradient>
</defs>
</svg>
